<svg width="118" height="120" viewBox="0 0 118 120" fill="none" xmlns="http://www.w3.org/2000/svg">
<path d="M36.9031 34.8644C29.9851 36.5939 18.822 42.0969 18.822 43.5119C18.822 44.4553 19.6081 45.202 21.1804 44.5731C42.4061 33.8288 55.1415 34.7072 73.8516 43.1975C81.3985 46.4993 88.9455 48.7005 94.9201 49.1721C106.712 50.1155 105.612 47.1282 93.8195 45.8704C89.2599 45.3987 80.4552 42.7258 74.4805 40.0529C65.9902 35.965 59.937 33.8423 50.6605 33.3706C44.2142 33.2134 38.6326 34.3927 36.9031 34.8644Z" fill="white"/>
<path d="M40.8338 43.04C29.3562 46.499 17.2497 55.6182 17.2497 60.8067C17.2497 62.8506 20.1584 65.6021 24.718 66.3883L35 68.3536L34 73.5C33.5 78.5 30.4143 82.6133 32.5 84.5C35.5 83.4474 35 83 36.117 80.3029L39.8905 70.0831L44.1749 76.844C53.2941 89.1077 72.1221 94.6106 78.254 88.4787C83.4425 83.2902 78.6863 72.6776 69.6065 74.6428C65.7151 75.036 64.811 76.4116 65.4006 81.1284C65.9902 82.8973 68.8596 83.6048 69.5278 81.718C69.9664 80.4798 68.0342 79.1237 70.707 78.1803C73.6944 76.9225 76.9962 80.1457 76.9962 83.4474C76.9962 91.466 60.1728 87.3781 49.6386 76.8439C45.7079 72.9132 42.4061 69.1397 42.4061 68.3536C42.4061 67.5675 44.7645 67.4102 47.7518 67.8819C56.7138 69.297 75.4239 65.3663 79.669 61.1211C81.9095 60.4922 80.691 58.1338 88.3951 58.1338C93.5837 58.1338 102.153 56.7188 102.153 55.7754C102.153 54.832 97.7502 54.2031 91.9328 54.2031C83.4425 54.2031 80.6124 53.417 74.3233 49.4863C62.8457 42.0966 51.2109 39.8954 40.8338 43.04ZM57.1462 47.2851C58.8757 49.0146 59.915 51.5578 59.5 55.5C58.7138 62.9683 54.7878 64.1085 49.6386 64.1085C46.494 64.1085 40.8338 58.7627 40.8338 55.7754C40.8338 54.5176 40.6766 51.2158 42.5633 48.8574C46.494 43.9833 52.7438 42.8828 57.1462 47.2851ZM37.5321 51.5303C35.9598 54.9893 36.117 56.4043 38.3182 59.7061C39.8905 62.0645 40.8338 64.1085 40.5194 64.4229C40.0477 65.0518 27.9412 62.5362 23.696 61.1211C21.9665 60.6495 20.8659 59.3916 23.696 56.4043C27.155 52.6309 37.8465 46.0273 38.9471 47.1279C39.1043 47.2851 38.4754 49.3291 37.5321 51.5303ZM72.751 52.0019C75.8956 54.0459 76.9962 55.461 76.9962 56.4043C76.9962 58.291 70.7071 62.6934 63.3174 64.1085L58.2861 65.0518L60.959 60.4922C62.827 55.5 63 54.5 62 50.5C62 47.9414 61.5 47.5 63.3174 47.2851C65.2041 47.7568 69.4493 49.958 72.751 52.0019Z" fill="white"/>
<circle cx="59" cy="62" r="52.75" stroke="white" stroke-width="2.5"/>
</svg>
